<svg xmlns="http://www.w3.org/2000/svg" viewBox="0 0 331.18 41.76"><defs><style>.cls-1,.cls-2{fill:#fff;stroke:#231f20;stroke-miterlimit:10;stroke-width:2px;}.cls-2{opacity:0;}</style></defs><g id="Layer_2" data-name="Layer 2"><g id="Layer_1-2" data-name="Layer 1"><rect class="cls-1" x="28.16" y="1" width="12.56" height="39.76"/><rect class="cls-1" x="13.56" y="5.17" width="10.42" height="31.42"/><rect class="cls-1" x="1" y="9.36" width="8.41" height="23.04"/><rect class="cls-2" x="40.72" y="5.17" width="4.18" height="31.42"/><path class="cls-1" d="M99.86,40.08H90.54V20.48l-9.2,19.6H71l-9.2-19.6v19.6H52.54V1.68H62.81L76.2,29.86,89.53,1.68H99.86Z"/><path class="cls-1" d="M137.82,1.68v8.58H117.65v6.61h16.83v8H117.65V31.5h20.17v8.58H108.39V1.68Z"/><path class="cls-1" d="M182.83,40.08h-9.32L154.08,16.59V40.08h-9.32V1.68h9.32l19.43,23.44V1.68h9.32Z"/><path class="cls-1" d="M225.24,10.26H211.63V40.08h-9.37V10.26H188.64V1.68h36.6Z"/><path class="cls-1" d="M240.83,40.08h-9.26V1.68h9.26Z"/><path class="cls-1" d="M286.58,20.88A19.83,19.83,0,1,1,266.75,1,19.9,19.9,0,0,1,286.58,20.88Zm-31.18,0A11.3,11.3,0,1,0,266.75,9.64,11.31,11.31,0,0,0,255.4,20.88Z"/><path class="cls-1" d="M330.18,40.08h-9.32L301.43,16.59V40.08h-9.32V1.68h9.32l19.43,23.44V1.68h9.32Z"/></g></g></svg>